<svg width="36" height="36" viewBox="0 0 36 36" fill="none" xmlns="http://www.w3.org/2000/svg">
<circle cx="18" cy="18" r="18" fill="#FFEEEB"/>
<path d="M25.093 18.004C25.6291 17.1473 26.0581 16.2905 26.3798 15.4337C27.3449 13.0776 27.1304 11.1499 26.0581 9.97189C24.8785 8.79384 22.9483 8.68675 20.5892 9.6506C19.8386 10.079 18.8735 10.5074 18.0156 11.0428C14.6914 9.00803 11.5816 8.47256 9.97314 10.079C8.79358 11.257 8.68634 13.1847 9.65144 15.5408C9.97314 16.3976 10.4021 17.2543 10.9382 18.1111C10.5093 18.8608 10.0804 19.8246 9.75867 20.5743C8.79358 22.9304 9.00804 24.8581 10.0804 26.0361C10.7238 26.6787 11.5816 27 12.654 27C14.1552 27 16.0854 26.3574 18.0156 25.0723C18.8735 25.6078 19.7313 26.0361 20.5892 26.3574C21.6615 26.7858 22.6266 27 23.4845 27C24.5568 27 25.4147 26.6787 26.0581 26.0361C27.6666 24.4297 27.1304 21.324 25.093 18.004ZM21.2326 11.3641C22.0904 11.0428 22.8411 10.9357 23.3772 10.9357C23.9134 10.9357 24.3423 11.0428 24.664 11.3641C25.2002 11.8996 25.2002 13.1847 24.5568 14.7912C24.3423 15.3266 24.1279 15.8621 23.8062 16.3976C23.27 15.6479 22.5194 14.8983 21.7687 14.1486C21.2326 13.3989 20.482 12.7564 19.7313 12.2209C20.2675 11.8996 20.8037 11.5783 21.2326 11.3641ZM22.8411 18.004C22.1977 18.8608 21.447 19.7175 20.5892 20.5743C19.7313 21.4311 18.8735 22.1807 18.0156 22.8233C17.1577 22.1807 16.2999 21.4311 15.442 20.5743C14.5841 19.8246 13.8335 18.9679 13.1901 18.004C13.8335 17.1473 14.5841 16.2905 15.442 15.4337C16.2999 14.577 17.1577 13.8273 18.0156 13.1847C18.8735 13.8273 19.7313 14.577 20.5892 15.4337C21.447 16.2905 22.1977 17.1473 22.8411 18.004ZM11.3672 14.7912C10.831 13.1847 10.831 11.8996 11.3672 11.3641C11.6889 11.0428 12.1178 10.9357 12.654 10.9357C13.6191 10.9357 14.9058 11.3641 16.4071 12.2209C15.6565 12.7564 14.9058 13.3989 14.1552 14.1486C13.4046 14.8983 12.7612 15.6479 12.225 16.3976C11.9033 15.8621 11.5816 15.3266 11.3672 14.7912ZM11.3672 24.751C10.831 24.2155 10.831 22.9304 11.4744 21.324C11.6889 20.7885 11.9033 20.253 12.225 19.7175C12.7612 20.4672 13.4046 21.2169 14.1552 21.9665C14.9058 22.7162 15.6565 23.3588 16.4071 23.8942C14.048 25.1794 12.1178 25.5007 11.3672 24.751ZM24.7713 24.751C24.2351 25.2865 22.9483 25.2865 21.3398 24.6439C20.8037 24.4297 20.2675 24.2155 19.7313 23.8942C20.482 23.3588 21.2326 22.6091 21.9832 21.8594C22.7338 21.1098 23.3772 20.3601 24.0206 19.6104C24.3423 20.1459 24.5568 20.6814 24.7713 21.2169C25.3074 22.8233 25.3074 24.1084 24.7713 24.751Z" fill="#F4694C"/>
<path d="M18.0159 16.1836C16.9436 16.1836 16.0857 17.0404 16.0857 18.1113C16.0857 19.1823 16.9436 20.039 18.0159 20.039C19.0882 20.039 19.9461 19.1823 19.9461 18.1113C19.9461 17.0404 19.0882 16.1836 18.0159 16.1836Z" fill="#F4694C"/>
</svg>
