<svg width="36" height="36" viewBox="0 0 36 36" fill="none" xmlns="http://www.w3.org/2000/svg">
<circle cx="18" cy="18" r="18" fill="#FFEEEB"/>
<path d="M18.051 9C13.8896 9 10.4565 11.7931 9.3121 15.5172C9.10403 16.3448 9 17.1724 9 18C9 21 10.5605 23.6897 12.8493 25.3448C14.3058 26.3793 16.0744 27 18.051 27C19.9237 27 21.6923 26.3793 23.1488 25.4483C25.4375 23.7931 26.998 21.1034 26.998 18.1034C27.1021 13.0345 23.0447 9 18.051 9ZM22.3165 22.8621L20.4438 20.2759L21.1721 18.1034L24.5012 17.069L25.4375 18.8276C25.3335 20.1724 24.8133 21.4138 24.0851 22.4483L22.3165 22.8621ZM13.7856 22.8621L12.017 22.4483C11.1847 21.4138 10.6646 20.1724 10.5605 18.7241L11.4968 16.9655L14.826 18L15.5542 20.1724L13.7856 22.8621ZM24.1891 13.6552V15.5172L20.6519 16.6552L18.8833 15.4138V11.5862L20.964 11.069C22.2124 11.6897 23.3568 12.5172 24.1891 13.6552ZM15.2421 11.069L17.3228 11.5862V15.3103L15.4502 16.6552L12.017 15.5172V13.6552C12.7453 12.5172 13.8896 11.6897 15.2421 11.069ZM16.0744 25.2414L15.034 23.7931L16.9067 21.3103H19.2995L21.1721 23.8966L20.0277 25.3448C19.4035 25.5517 18.7793 25.5517 18.1551 25.5517C17.4268 25.4483 16.6986 25.3448 16.0744 25.2414Z" fill="#F4694C"/>
</svg>
