<svg width="144" height="150" viewBox="0 0 144 150" fill="none" xmlns="http://www.w3.org/2000/svg">
<path d="M26.0808 62.4189L14.8017 59.0576L11.0669 68.0958L22.2713 72.6896" fill="white"/>
<path d="M16.7068 59.6553L11.0672 68.0959L4.08315 71.3079C3.18679 71.7187 2.14105 71.8681 1.17001 71.6813C0.161611 71.4946 -0.323912 70.3368 0.236307 69.4778L9.94677 55.0615C10.4696 54.3145 11.5527 54.2025 12.1877 54.8748L16.7068 59.6553Z" fill="#1F2E43"/>
<path d="M87.5183 14.9498H76.1272C74.1851 14.9498 72.355 15.9208 71.2719 17.5268L57.9014 37.2465C57.4905 37.8441 57.3038 38.591 57.3785 39.3006C57.4532 40.1223 57.8267 40.8692 58.4242 41.3921L60.2543 43.0354L60.4784 44.1932C60.5531 44.5667 60.8145 44.8655 61.188 44.9402L64.4746 45.7992C65.1469 45.9859 65.7444 45.4257 65.7071 44.7534L65.5203 43.0354L63.7276 39.9729L77.0982 25.4445L88.6761 25.706L87.5183 14.9498Z" fill="white"/>
<path d="M113.738 40.4584L115.493 54.0904C115.717 55.8084 116.726 57.3771 118.22 58.2734L135.063 68.5067L137.08 71.2331L138.873 72.615C139.06 72.7644 139.358 72.7644 139.545 72.5777C139.732 72.3909 139.769 72.0921 139.62 71.8681L138.686 70.6729L138.35 69.5525L140.703 70.7103L141.599 72.4656C141.749 72.8018 142.197 72.8018 142.421 72.503L143.429 71.0837C143.616 70.8223 143.654 70.4488 143.541 70.1127L142.645 67.5357C142.458 66.9755 142.085 66.49 141.599 66.1538L138.238 63.7262L125.39 52.223L123.934 39.226L113.738 40.4584Z" fill="white"/>
<path d="M79.3414 40.3089L90.7699 26.901L81.2088 26.1167L80.4245 14.6135H97.754C100.816 14.6135 103.842 15.3605 106.531 16.7424L121.171 24.324C122.777 25.1456 123.86 26.7516 124.01 28.5817L125.279 44.6413L113.776 46.3593L112.917 39.2632L100.032 55.4348L79.3414 40.3089Z" fill="#684945"/>
<path d="M119.474 30.5724L112.791 39.1431L113.086 39.3728L119.769 30.8021L119.474 30.5724Z" fill="#B1756D"/>
<path d="M124.271 8.93661C124.421 8.52579 124.608 8.00292 124.682 7.2933C124.757 6.62104 124.72 6.06082 124.645 5.64999C120.499 5.64999 115.98 5.64999 111.835 5.64999C111.835 5.64999 111.013 8.26435 111.162 12.2979C111.349 16.3689 124.271 8.93661 124.271 8.93661Z" fill="#1F2E43"/>
<path d="M124.23 6.39702C124.23 6.39702 124.417 12.7462 123.297 14.9124C122.251 16.9665 120.421 18.0496 119.749 18.1616C119.076 18.2737 117.47 17.6761 117.47 17.6761L115.827 21.635L110.15 24.2493L108.582 16.0328L112.242 10.9535C112.242 10.9535 110.524 9.08608 111.383 7.81625C112.167 6.65846 113.511 6.88255 114.184 8.11503C114.296 8.30177 114.483 8.45116 114.707 8.45116C114.968 8.48851 115.229 8.37646 115.379 8.15238C115.603 7.81624 115.864 7.14398 115.827 5.9115C115.79 5.94885 122.587 8.26442 124.23 6.39702Z" fill="white"/>
<path d="M108.585 16.0329L106.531 16.7425L107.913 24.8097L110.639 23.988L108.585 16.0329Z" fill="#B1756D"/>
<path d="M110.636 23.988L115.865 21.5604L116.462 20.1038L117.433 22.382L111.159 26.9385L110.636 23.988Z" fill="#B1756D"/>
<path d="M92.3736 60.1034L70.1143 86.0976C67.4252 89.2348 63.0555 90.2805 59.246 88.6746L22.7197 73.3619L27.4256 62.2696L58.7231 71.5692L74.6334 48.152L92.3736 60.1034Z" fill="url(#paint0_linear_10_1050)"/>
<path d="M70 55.8468L72.0915 52.7843L74.2577 52L84.3416 63.1297L87.4788 66.5657C87.4788 66.5657 82 72 81.2875 72.6161C80.5749 73.2322 75.3781 67.6488 75.3781 67.6488C72.465 65.5573 70.5976 62.308 70.2614 58.76L70 55.8468Z" fill="#14C2D9"/>
<path d="M71.9939 49.7478L79.4635 40L102.022 52.8103L100.154 55.1633L120.584 70.1398C123.273 72.1192 124.43 75.5926 123.422 78.7672L110.126 120.634L98.1001 116.899L106.466 81.5683L75.0564 64.2015C73.077 63.1184 71.5083 61.363 70.6867 59.2342C69.4169 56.0223 69.9397 52.4369 71.9939 49.7478Z" fill="url(#paint1_linear_10_1050)"/>
<path d="M103.653 118.926L103.279 118.814L114.222 79.0762C114.409 78.3292 114.147 77.5823 113.512 77.1715L77.8078 54.4639C76.65 53.7169 75.8657 52.5592 75.6042 51.2146C75.3428 49.8701 75.6416 48.5256 76.4259 47.4051L80.9077 41.1307L81.2064 41.3548L76.7247 47.6292C75.9777 48.675 75.7163 49.9074 75.9404 51.1399C76.1645 52.3724 76.9114 53.4555 77.9572 54.1278L113.662 76.8353C114.446 77.3208 114.782 78.2545 114.558 79.1509L103.653 118.926Z" fill="#1F2E43"/>
<path d="M98.053 120.906L95.5133 132.372L105.672 132.558L108.585 123.931" fill="white"/>
<path d="M110.972 119.935L97.5269 116.312L95.9583 121.541L108.881 125.612L110.972 119.935Z" fill="#14C2D9"/>
<path d="M28.3217 61.7841L22.7195 74.221L17.4161 72.2415L21.9725 59.9914L28.3217 61.7841Z" fill="#14C2D9"/>
<path d="M95.5112 132.372L105.67 132.558L112.131 136.667C112.99 137.19 113.625 138.011 113.998 138.908C114.372 139.879 113.662 140.887 112.654 140.887L95.2871 140.514C94.3534 140.476 93.7185 139.617 93.9426 138.721L95.5112 132.372Z" fill="#1F2E43"/>
<path d="M106.52 133.117L105.553 134.538L105.862 134.748L106.829 133.328L106.52 133.117Z" fill="white"/>
<path d="M108.006 134.02L107.04 135.44L107.348 135.65L108.315 134.23L108.006 134.02Z" fill="white"/>
<path d="M109.479 134.953L108.512 136.373L108.821 136.583L109.788 135.163L109.479 134.953Z" fill="white"/>
<path d="M6.46267 68.35L6.11963 68.4977L6.79893 70.0756L7.14197 69.928L6.46267 68.35Z" fill="white"/>
<path d="M8.02224 67.603L7.6792 67.7507L8.3585 69.3287L8.70154 69.181L8.02224 67.603Z" fill="white"/>
<path d="M9.58791 66.8545L9.24487 67.0021L9.92417 68.5801L10.2672 68.4324L9.58791 66.8545Z" fill="white"/>
<path d="M110.492 23.9144L105.223 31.258L105.527 31.4757L110.796 24.1322L110.492 23.9144Z" fill="#B1756D"/>
<path d="M113.963 13.7546C113.963 13.7546 114.15 14.6883 114.859 15.622C115.793 16.8545 117.474 17.6388 117.474 17.6388L116.577 19.7677C112.805 17.228 113.963 13.7546 113.963 13.7546Z" fill="#ECF5EC"/>
<path d="M124.529 6.50906L105.781 6.50906C105.519 6.50906 105.332 6.32232 105.332 6.06089C105.332 5.79945 105.519 5.61271 105.781 5.61271H111.457C111.457 5.61271 111.868 0.234608 117.097 0.0105207C122.363 -0.213567 125.276 3.1851 124.977 6.09824C124.94 6.32232 124.753 6.50906 124.529 6.50906Z" fill="#FA5F1C"/>
<path d="M123.747 5.27657H120.161C120.161 5.27657 120.535 3.55856 122.178 3.55856C123.859 3.59591 123.747 5.27657 123.747 5.27657Z" fill="#4D4D4D"/>
<path d="M72.5036 142.568L73.0638 146.639H75.8276L80.4587 142.568H72.5036Z" fill="#2979F2"/>
<path d="M74.4467 150C76.3032 150 77.8081 148.495 77.8081 146.639C77.8081 144.782 76.3032 143.277 74.4467 143.277C72.5903 143.277 71.0854 144.782 71.0854 146.639C71.0854 148.495 72.5903 150 74.4467 150Z" fill="#1F2E43"/>
<path d="M74.4468 148.17C75.2925 148.17 75.9781 147.484 75.9781 146.639C75.9781 145.793 75.2925 145.107 74.4468 145.107C73.6011 145.107 72.9156 145.793 72.9156 146.639C72.9156 147.484 73.6011 148.17 74.4468 148.17Z" fill="white"/>
<path d="M122.627 142.568L122.067 146.639H119.266L114.672 142.568H122.627Z" fill="#2979F2"/>
<path d="M120.685 150C122.542 150 124.047 148.495 124.047 146.639C124.047 144.782 122.542 143.277 120.685 143.277C118.829 143.277 117.324 144.782 117.324 146.639C117.324 148.495 118.829 150 120.685 150Z" fill="#1F2E43"/>
<path d="M120.684 148.17C121.53 148.17 122.216 147.484 122.216 146.639C122.216 145.793 121.53 145.107 120.684 145.107C119.839 145.107 119.153 145.793 119.153 146.639C119.153 147.484 119.839 148.17 120.684 148.17Z" fill="white"/>
<path d="M68.8804 142.754H126.172C128.936 142.754 131.625 141.597 133.567 139.58L133.642 139.505C134.053 139.057 134.053 138.347 133.604 137.937C133.156 137.526 132.447 137.526 132.036 137.974L131.961 138.049C130.43 139.655 128.376 140.551 126.172 140.551H68.8804C66.7143 140.551 64.6601 139.655 63.0915 138.049C62.6807 137.6 61.9711 137.6 61.5229 138.011C61.0747 138.422 61.0747 139.132 61.4855 139.58C63.4276 141.597 66.1167 142.754 68.8804 142.754Z" fill="#FA5F1C"/>
<path d="M113.176 9.79568C113.102 8.93667 112.616 8.63789 112.616 8.63789L112.803 8.30176C112.84 8.30176 113.475 8.71259 113.55 9.75833L113.176 9.79568Z" fill="#1F2E43"/>
<path d="M121.542 13.7172H120.608V13.3438H121.542C121.579 13.3438 121.616 13.3064 121.616 13.2691V10.1692H121.99V13.2691C121.99 13.4932 121.803 13.7172 121.542 13.7172Z" fill="#EC744F"/>
<path d="M120.04 9.93007C120.07 9.66361 119.928 9.42885 119.723 9.40573C119.518 9.38261 119.327 9.57988 119.297 9.84634C119.267 10.1128 119.409 10.3475 119.614 10.3707C119.819 10.3938 120.009 10.1965 120.04 9.93007Z" fill="#1F2E43"/>
<path d="M123.468 10.3014C123.498 10.035 123.39 9.80398 123.226 9.78548C123.062 9.76698 122.904 9.968 122.874 10.2345C122.844 10.5009 122.953 10.7319 123.117 10.7504C123.281 10.7689 123.438 10.5679 123.468 10.3014Z" fill="#1F2E43"/>
<path d="M118.368 8.11498L118.181 7.77885C118.256 7.7415 119.787 6.8825 121.057 7.77885L120.833 8.07763C119.749 7.36802 118.368 8.11498 118.368 8.11498Z" fill="#1F2E43"/>
<path d="M123.112 8.11506L122.888 7.81627C122.925 7.77893 123.336 7.55484 124.232 7.70423L124.157 8.07771C123.41 7.92832 123.112 8.11506 123.112 8.11506Z" fill="#1F2E43"/>
<path d="M83.1651 14.5808L82.793 14.6129L83.8031 26.334L84.1752 26.3019L83.1651 14.5808Z" fill="#B1756D"/>
<path d="M125.071 41.7621L113.47 43.4801L113.525 43.8495L125.126 42.1315L125.071 41.7621Z" fill="#B1756D"/>
<path d="M69.0699 87.1807C68.2482 86.3963 67.1278 85.9108 65.8953 85.9108C63.7665 85.9108 61.9738 87.3674 61.4136 89.3095C64.14 89.7577 66.9411 88.9734 69.0699 87.1807Z" fill="#14C2D9"/>
<path d="M120.535 70.4487C119.825 71.2704 119.414 72.3161 119.414 73.4739C119.414 75.8642 121.244 77.8436 123.56 78.0677C124.083 75.1919 122.925 72.2041 120.535 70.4487Z" fill="#14C2D9"/>
<path d="M115.305 52.7832L115.455 54.0904C115.679 55.8084 116.687 57.377 118.181 58.2733L118.928 58.7215C119.077 58.2733 119.152 57.8252 119.152 57.3396C119.115 55.0614 117.471 53.1567 115.305 52.7832Z" fill="#E2F0E4"/>
<path d="M76.1284 14.9497C74.1863 14.9497 72.3563 15.9207 71.2732 17.5267L70.9744 17.9749C71.3479 18.0869 71.7587 18.1242 72.2069 18.1242C74.261 18.1242 76.0164 16.7797 76.614 14.9123H76.1284V14.9497Z" fill="#E2F0E4"/>
<path d="M119.863 15.0992C118.444 14.8377 117.996 13.6426 117.996 13.6052L118.332 13.4932C118.332 13.5305 118.743 14.5389 119.938 14.763L119.863 15.0992Z" fill="#1F2E43"/>
<defs>
<linearGradient id="paint0_linear_10_1050" x1="57.5467" y1="48.152" x2="57.5467" y2="89.4204" gradientUnits="userSpaceOnUse">
<stop stop-color="#3DEBF7"/>
<stop offset="1" stop-color="#0BD5E2"/>
</linearGradient>
<linearGradient id="paint1_linear_10_1050" x1="96.8913" y1="40" x2="96.8913" y2="120.634" gradientUnits="userSpaceOnUse">
<stop stop-color="#3DEBF7"/>
<stop offset="1" stop-color="#0BD5E2"/>
</linearGradient>
</defs>
</svg>
