<svg width="18" height="17" viewBox="0 0 18 17" fill="none" xmlns="http://www.w3.org/2000/svg">
<path d="M15.0247 15.6121H2.97531C1.88889 15.6121 1 14.7232 1 13.6368V4.84665C1 3.76023 1.88889 2.87134 2.97531 2.87134H15.0247C16.1111 2.87134 17 3.76023 17 4.84665V13.6368C17 14.7232 16.1111 15.6121 15.0247 15.6121Z" stroke="#8695A0" stroke-width="1.2" stroke-miterlimit="10" stroke-linecap="round" stroke-linejoin="round"/>
<path d="M5.35161 4.44967L5.35461 1.38794" stroke="#8695A0" stroke-width="1.2" stroke-miterlimit="10" stroke-linecap="round" stroke-linejoin="round"/>
<path d="M12.5621 4.45467L12.5651 1.39294" stroke="#8695A0" stroke-width="1.2" stroke-miterlimit="10" stroke-linecap="round" stroke-linejoin="round"/>
<path d="M9.00326 6.32887L9.8903 8.20629L12.0628 8.50472L10.481 10.0834L10.8741 12.1579L8.9985 11.1684L7.12099 12.1542L7.41932 10.0804L5.93939 8.49871L8.01376 8.20445L9.00326 6.32887Z" stroke="#8695A0" stroke-width="1.2" stroke-miterlimit="10" stroke-linecap="round" stroke-linejoin="round"/>
</svg>
