<svg width="17" height="18" viewBox="0 0 17 18" fill="none" xmlns="http://www.w3.org/2000/svg">
<path d="M10.0852 8.92073L6.91614 8.91759C6.38797 8.91707 5.85939 9.34172 5.85876 9.97947L5.85192 16.9948L11.1336 17L11.1405 9.9847C11.1411 9.34694 10.719 8.92135 10.0852 8.92073Z" stroke="#54BCBD" stroke-width="1.5" stroke-miterlimit="10"/>
<path d="M13.993 16.997H3.11268C1.9507 16.997 1 16.0404 1 14.8712V7.4307C1 6.79294 1.3169 6.15519 1.84507 5.73002L7.23239 1.47832C7.97183 0.840561 9.02817 0.840561 9.76761 1.47832L15.1549 5.73002C15.6831 6.15519 16 6.68665 16 7.4307V14.8712C16 16.0404 15.1549 16.997 13.993 16.997Z" stroke="#54BCBD" stroke-width="1.5" stroke-miterlimit="10"/>
</svg>
