<svg width="36" height="36" viewBox="0 0 36 36" fill="none" xmlns="http://www.w3.org/2000/svg">
<circle cx="18" cy="18" r="18" fill="#FFEEEB"/>
<path d="M13.3102 26C13.0538 25.9145 12.7975 25.9145 12.5411 25.8291C11.4302 25.4873 10.7466 24.3764 11.0884 23.2656C11.2593 22.7529 11.6012 22.411 12.0284 22.2401C12.5411 22.0692 13.0538 21.9838 13.5665 21.9838C13.9083 21.9838 14.3356 21.9838 14.6774 21.8983C15.1901 21.8129 15.361 21.5565 15.4465 21.0438C15.4465 20.9584 15.4465 20.7875 15.4465 20.702C15.4465 17.5403 15.4465 16.0022 15.4465 12.8405C15.4465 12.7551 15.4465 12.6696 15.4465 12.5842C15.4465 12.2424 15.6174 12.0715 15.9592 11.986C16.4719 11.8151 16.9846 11.7297 17.4973 11.5588C19.9754 11.046 22.4534 10.5333 24.9315 10.0206C25.4442 9.93518 25.786 10.1061 25.786 10.7042C25.786 11.4733 25.786 12.2424 25.786 13.0114C25.786 16.5149 25.786 18.3094 25.786 21.8129C25.786 23.0947 24.8461 24.1201 23.5643 24.2055C22.8807 24.2055 22.2825 24.2055 21.5989 23.9492C20.5735 23.5219 20.0608 22.582 20.3172 21.5565C20.4026 21.0438 20.659 20.7875 21.0862 20.5311C21.5989 20.2748 22.1116 20.1893 22.6244 20.1893C23.0516 20.1893 23.4789 20.1893 23.9061 20.1039C24.4188 20.0184 24.6752 19.7621 24.6752 19.2494C24.6752 19.1639 24.6752 19.0785 24.6752 18.9076C24.6752 16.9422 24.6752 17.4549 24.6752 15.4895C24.6752 15.4041 24.6752 15.2332 24.6752 15.1477C24.6752 14.8913 24.5043 14.8059 24.2479 14.8059C23.8207 14.8913 23.3934 14.9768 23.0516 15.0623C21.0008 15.4895 18.95 15.9168 16.9846 16.4295C16.6428 16.4295 16.6428 16.5149 16.5573 16.7713C16.5573 16.8567 16.5573 17.0276 16.5573 17.1131C16.5573 20.1039 16.5573 20.5311 16.5573 23.5219C16.5573 24.8037 15.7028 25.5727 14.7628 25.8291C14.5065 25.9145 14.2501 25.9145 13.9083 26C13.7374 26 13.4811 26 13.3102 26Z" fill="#F4694C"/>
</svg>
