<svg width="161" height="156" viewBox="0 0 161 156" fill="none" xmlns="http://www.w3.org/2000/svg">
<path d="M68.6402 81.7662L70.5168 89.7779C71.0581 92.0514 71.1663 94.4333 70.8415 96.7429L65.6087 134.275L57.9941 134.383L58.0302 95.5159L52.5447 84.6533L68.6402 81.7662Z" fill="white"/>
<path d="M57.6681 133.048L65.7158 132.867L71.6704 137.306C72.5004 137.92 73.1139 138.822 73.4026 139.796C73.6192 140.518 73.0417 141.204 72.2839 141.168L59.2921 140.049C58.1012 139.941 57.235 138.894 57.3072 137.739L57.6681 133.048Z" fill="#536174"/>
<path d="M72.1052 142.792C72.0692 142.792 72.0692 142.792 72.0331 142.792L62.9027 142.178C62.3975 142.142 62.0366 141.709 62.0727 141.204C62.1088 140.699 62.5418 140.338 63.0471 140.374L72.1774 140.987C72.6827 141.023 73.0435 141.456 73.0075 141.962C72.9714 142.431 72.5744 142.792 72.1052 142.792Z" fill="#1F2E43"/>
<path d="M67.7018 141.956C67.5574 141.956 67.4131 141.92 67.2687 141.847C66.8357 141.631 66.6552 141.09 66.8717 140.62L73.7285 127.448C73.9451 127.015 74.4864 126.835 74.9555 127.051C75.3886 127.268 75.569 127.809 75.3525 128.278L68.4957 141.45C68.3514 141.775 68.0266 141.956 67.7018 141.956Z" fill="#CEDBED"/>
<path d="M38.6508 58.7057L52.5448 84.6533L68.6402 81.7662L62.9022 58.7057H38.6508Z" fill="#FA5F1C"/>
<path d="M66.6198 73.6102L64.8515 66.573L39.5896 60.4741L42.0075 62.892C45.1111 65.9956 48.9365 68.3052 53.1227 69.6044L66.6198 73.6102Z" fill="#E24501"/>
<path d="M31.4695 95.8407H30.7477V153.943H31.4695V95.8407Z" fill="#F2F2F2"/>
<path d="M60.1599 124.531H2.05762V125.253H60.1599V124.531Z" fill="#F2F2F2"/>
<path d="M10.8136 104.088L10.3033 104.598L51.3874 145.682L51.8977 145.172L10.8136 104.088Z" fill="#F2F2F2"/>
<path d="M51.3874 104.087L10.3033 145.172L10.8136 145.682L51.8977 104.598L51.3874 104.087Z" fill="#F2F2F2"/>
<path d="M60.1589 124.639H32.4791L58.0658 114.138L57.8853 113.632L32.2265 124.134L51.8225 104.538L51.4616 104.177L31.8656 123.737L42.5478 98.2226L42.0786 98.006L31.3604 123.557V95.8407H30.8191V123.521L20.3174 97.8978L19.8121 98.1143L30.3499 123.737L10.7539 104.177L10.357 104.538L29.9169 124.134L4.40238 113.416L4.18585 113.921L29.7364 124.639H2.05664V125.181H29.7364L4.11368 135.646L4.33021 136.151L29.9529 125.65L10.357 145.246L10.7539 145.643L30.3138 126.047L19.6317 151.597L20.1369 151.814L30.8191 126.263V153.943H31.3604V126.263L41.8621 151.886L42.3673 151.669L31.8656 126.047L51.4616 145.643L51.8225 145.246L32.2626 125.686L57.7771 136.368L57.9936 135.863L32.443 125.181H60.1589V124.639Z" fill="#CEDBED"/>
<path d="M31.1082 156C13.9662 156 0 142.034 0 124.892C0 107.75 13.9662 93.7837 31.1082 93.7837C48.2501 93.7837 62.2163 107.75 62.2163 124.892C62.2163 142.034 48.2501 156 31.1082 156ZM31.1082 97.7895C16.1676 97.7895 3.96972 109.951 3.96972 124.928C3.96972 139.905 16.1315 152.066 31.1082 152.066C46.0488 152.066 58.2466 139.905 58.2466 124.928C58.2466 109.951 46.0488 97.7895 31.1082 97.7895Z" fill="#1F2E43"/>
<path d="M31.109 153.582C15.3022 153.582 2.4187 140.699 2.4187 124.892C2.4187 109.085 15.3022 96.2016 31.109 96.2016C46.9157 96.2016 59.7992 109.085 59.7992 124.892C59.7992 140.699 46.9157 153.582 31.109 153.582ZM31.109 98.006C16.2766 98.006 4.22312 110.06 4.22312 124.892C4.22312 139.724 16.2766 151.778 31.109 151.778C45.9413 151.778 57.9948 139.724 57.9948 124.892C57.9948 110.06 45.9052 98.006 31.109 98.006Z" fill="#CEDBED"/>
<path d="M31.1084 128.465C33.0816 128.465 34.6811 126.865 34.6811 124.892C34.6811 122.919 33.0816 121.319 31.1084 121.319C29.1352 121.319 27.5356 122.919 27.5356 124.892C27.5356 126.865 29.1352 128.465 31.1084 128.465Z" fill="#1F2E43"/>
<path d="M33.7798 137.487C34.7365 137.487 35.5121 136.711 35.5121 135.754C35.5121 134.798 34.7365 134.022 33.7798 134.022C32.8231 134.022 32.0476 134.798 32.0476 135.754C32.0476 136.711 32.8231 137.487 33.7798 137.487Z" fill="#1F2E43"/>
<path d="M129.701 95.8407H128.979V153.943H129.701V95.8407Z" fill="#F2F2F2"/>
<path d="M158.392 124.531H100.289V125.253H158.392V124.531Z" fill="#F2F2F2"/>
<path d="M109.043 104.085L108.533 104.595L149.617 145.679L150.127 145.169L109.043 104.085Z" fill="#F2F2F2"/>
<path d="M149.617 104.085L108.533 145.169L109.043 145.679L150.127 104.595L149.617 104.085Z" fill="#F2F2F2"/>
<path d="M158.392 124.639H130.712L156.299 114.138L156.118 113.632L130.46 124.134L150.056 104.538L149.659 104.177L130.099 123.737L140.781 98.2226L140.312 98.006L129.593 123.557V95.8407H129.052V123.521L118.55 97.8978L118.045 98.1143L128.547 123.737L108.987 104.177L108.59 104.538L128.15 124.134L102.635 113.416L102.419 113.921L127.969 124.639H100.29V125.181H127.933L102.347 135.646L102.563 136.151L128.186 125.65L108.59 145.246L108.987 145.643L128.547 126.047L117.865 151.597L118.37 151.814L129.052 126.227V153.943H129.593V126.263L140.095 151.886L140.6 151.669L130.099 126.047L149.659 145.643L150.056 145.246L130.496 125.686L156.01 136.368L156.227 135.863L130.676 125.181H158.392V124.639Z" fill="#CEDBED"/>
<path d="M129.341 156C112.199 156 98.233 142.034 98.233 124.892C98.233 107.75 112.199 93.7837 129.341 93.7837C146.483 93.7837 160.449 107.75 160.449 124.892C160.449 142.034 146.483 156 129.341 156ZM129.341 97.7895C114.401 97.7895 102.203 109.951 102.203 124.928C102.203 139.905 114.365 152.066 129.341 152.066C144.318 152.066 156.48 139.905 156.48 124.928C156.48 109.951 144.282 97.7895 129.341 97.7895Z" fill="#1F2E43"/>
<path d="M129.34 153.582C113.533 153.582 100.65 140.699 100.65 124.892C100.65 109.085 113.533 96.2016 129.34 96.2016C145.147 96.2016 158.03 109.085 158.03 124.892C158.03 140.699 145.147 153.582 129.34 153.582ZM129.34 98.006C114.508 98.006 102.454 110.06 102.454 124.892C102.454 139.724 114.508 151.778 129.34 151.778C144.172 151.778 156.226 139.724 156.226 124.892C156.226 110.06 144.136 98.006 129.34 98.006Z" fill="#CEDBED"/>
<path d="M129.34 128.465C131.314 128.465 132.913 126.865 132.913 124.892C132.913 122.919 131.314 121.319 129.34 121.319C127.367 121.319 125.768 122.919 125.768 124.892C125.768 126.865 127.367 128.465 129.34 128.465Z" fill="#1F2E43"/>
<path d="M103.718 71.5172L128.114 125.541C128.367 126.083 128.944 126.408 129.558 126.335C130.46 126.227 131.001 125.289 130.676 124.423L108.338 70.5789L103.718 71.5172Z" fill="#2979F2"/>
<path d="M123.134 86.169H120.175C119.489 86.169 118.912 85.5916 118.912 84.9059C118.912 84.2202 119.489 83.6428 120.175 83.6428H123.134C124.65 83.6428 126.057 82.9211 126.959 81.6941C128.078 80.1423 128.186 78.0852 127.176 76.4612C125.48 73.7185 122.34 72.2028 119.164 72.6359L103.682 74.6929C102.997 74.7651 102.347 74.2959 102.275 73.6103C102.167 72.9246 102.672 72.275 103.358 72.2028L118.839 70.1458C123.026 69.6045 127.14 71.5532 129.341 75.1621C130.893 77.6882 130.749 80.8279 129.016 83.2098C127.609 85.0503 125.444 86.169 123.134 86.169Z" fill="#1F2E43"/>
<path d="M54.999 89.0922C54.0968 89.0922 53.3028 88.4065 53.1946 87.5043C53.0863 86.5299 53.8081 85.6277 54.7825 85.5195L110.539 79.2401C111.549 79.1318 112.416 79.8536 112.524 80.828C112.632 81.8024 111.91 82.7046 110.936 82.8128L55.1794 89.0561C55.1072 89.0922 55.0351 89.0922 54.999 89.0922Z" fill="#0A54C5"/>
<path d="M75.5333 129.656L73.6206 127.418L111.153 81.8745L113.534 87.4321L75.5333 129.656Z" fill="#0A54C5"/>
<path d="M74.6313 129.908C74.09 129.908 73.5848 129.619 73.3321 129.078L44.4614 68.5939C44.1006 67.8722 44.4254 67.0061 45.1471 66.6813C45.8689 66.3204 46.735 66.6452 47.0598 67.3669L75.9305 127.851C76.2914 128.573 75.9666 129.439 75.2448 129.764C75.0644 129.872 74.8478 129.908 74.6313 129.908Z" fill="#0A54C5"/>
<path d="M54.3493 82.6324L47.0956 67.4031C46.7347 66.6813 45.9047 66.3926 45.1829 66.7174C44.4611 67.0783 44.1724 67.9083 44.4972 68.6301L51.2818 82.885L54.3493 82.6324Z" fill="#2979F2"/>
<path d="M34.501 65.7069C34.501 65.7069 33.6349 69.3519 41.2495 69.9293C48.8642 70.5067 50.9212 68.7384 56.2262 68.3414C61.5312 67.9083 62.7943 65.0574 54.9992 64.9852C47.2041 64.913 34.7897 63.9747 34.501 65.7069Z" fill="#1F2E43"/>
<path d="M33.8153 137.848C32.9852 137.848 32.1913 137.342 31.8304 136.584L27.3915 126.913C26.9224 125.902 26.8863 124.82 27.2472 123.773C27.8246 122.149 29.3042 121.03 31.0365 120.958L74.6673 119.082V137.451L33.8153 137.848ZM73.9816 119.839L31.1086 121.716C29.6651 121.788 28.4381 122.69 27.969 124.026C27.6803 124.892 27.7163 125.794 28.0772 126.624L32.5161 136.296C32.7687 136.801 33.274 137.126 33.8153 137.126L73.9455 136.729V119.839H73.9816Z" fill="#1F2E43"/>
<path d="M74.7394 129.944L29.7733 125.614L30.062 123.448L74.992 127.021L74.7394 129.944Z" fill="#0A54C5"/>
<path d="M74.5585 137.415C79.621 137.415 83.725 133.311 83.725 128.248C83.725 123.186 79.621 119.082 74.5585 119.082C69.496 119.082 65.3921 123.186 65.3921 128.248C65.3921 133.311 69.496 137.415 74.5585 137.415Z" fill="#1F2E43"/>
<path d="M31.361 125.794L30.3867 123.52L53.7719 86.4938L56.1898 88.0817L31.361 125.794Z" fill="#0A54C5"/>
<path d="M30.8553 125.974C31.5928 125.974 32.1906 125.377 32.1906 124.639C32.1906 123.902 31.5928 123.304 30.8553 123.304C30.1179 123.304 29.5201 123.902 29.5201 124.639C29.5201 125.377 30.1179 125.974 30.8553 125.974Z" fill="#2979F2"/>
<path d="M67.5575 70.0375L82.1372 74.1516L76.0744 106.306L83.5086 108.291L96.8252 71.4811C98.2687 67.5113 96.3199 63.1086 92.4224 61.4485L74.4143 53.906L67.5575 70.0375Z" fill="white"/>
<path d="M96.3557 8.25423C96.3557 8.25423 96.0309 17.4928 94.5152 19.189C93.2882 20.5604 89.0658 18.9364 89.0658 18.9364L85.7096 22.7618L79.9716 17.4207L82.9669 14.7501L86.4675 7.74899L96.3557 8.25423Z" fill="white"/>
<path d="M89.6796 8.18207L88.8496 11.2496C88.8135 11.43 88.633 11.5744 88.4526 11.6105C88.2361 11.6466 88.0195 11.5022 87.9474 11.3218C87.7669 10.8526 87.37 10.1308 86.5038 10.1308C85.2407 10.0948 84.9159 12.8736 86.7925 13.7036L83.8694 15.3637L82.498 15.2193C82.498 15.2193 81.0545 10.5639 81.7763 6.8468L89.6796 8.18207Z" fill="#1F2E43"/>
<path d="M43.2696 41.8525C43.2696 41.8525 48.9716 31.3869 63.2986 22.0039C68.0262 18.9003 73.1868 17.2763 77.1566 16.3741C80.8376 15.5441 84.6629 17.132 86.72 20.3078L102.31 44.6674L120.932 64.119L113.57 67.8001L96.3917 53.5452C94.5151 51.9934 92.855 50.1889 91.4115 48.2402L82.8585 36.4032C82.8585 36.4032 70.5524 43.9456 65.6805 51.6325L43.2696 41.8525Z" fill="#2979F2"/>
<path d="M98.0528 53.1482C98.0528 50.6581 96.0318 48.6732 93.5778 48.6732C93.0004 48.6732 92.4952 48.7815 91.9899 48.9619C93.2891 50.6581 94.7687 52.1738 96.3927 53.5451L97.7641 54.7C97.9445 54.2308 98.0528 53.6895 98.0528 53.1482Z" fill="#0A54C5"/>
<path d="M115.735 66.6813L95.3816 48.7093L82.498 31.3869L78.8892 30.4486C78.2757 30.4847 67.1244 31.3147 52.653 45.6057L52.4003 45.3531C60.1593 37.6663 66.9439 33.9492 71.2745 32.1448C75.966 30.196 78.7809 30.0877 78.8892 30.0877H78.9253L82.7146 31.0982L95.6703 48.4928L115.988 66.4287L115.735 66.6813Z" fill="#05214A"/>
<path d="M43.6276 41.481L39.1888 48.3377C37.2761 51.3331 36.9152 55.0502 38.2866 58.3342C39.6218 61.4739 42.3284 63.8197 45.6486 64.6136L68.7451 70.2073L74.7719 53.5345L43.6276 41.481Z" fill="#FA5F1C"/>
<path d="M76.0745 105.765L84.0139 106.92L89.1745 112.297C89.8963 113.055 90.3655 114.029 90.4737 115.04C90.5459 115.798 89.8602 116.375 89.1385 116.195L76.5075 112.983C75.3527 112.694 74.667 111.539 74.9557 110.384L76.0745 105.765Z" fill="#536174"/>
<path d="M82.8585 36.5836C82.7863 36.5836 82.7502 36.5475 82.7141 36.5114L78.167 29.4381C78.1309 29.3659 78.1309 29.2577 78.2392 29.1855C78.3474 29.1133 78.4196 29.1494 78.4918 29.2577L83.0389 36.331C83.075 36.4032 83.075 36.5114 82.9668 36.5836C82.9307 36.5475 82.8946 36.5836 82.8585 36.5836Z" fill="#0A54C5"/>
<path d="M34.5005 135.574L33.5983 134.96L34.717 133.264C34.7531 133.192 34.7531 133.12 34.717 133.048L29.9534 126.985L30.8195 126.299L35.5832 132.362C35.9079 132.795 35.944 133.373 35.6553 133.842L34.5005 135.574Z" fill="#1F2E43"/>
<path d="M83.1402 68.4032L81.959 74.092L82.3123 74.1653L83.4935 68.4766L83.1402 68.4032Z" fill="#E2F0E3"/>
<path d="M74.5592 128.783C74.4149 128.783 74.2705 128.747 74.1262 128.675C73.6931 128.459 73.5127 127.917 73.7292 127.448L80.586 114.276C80.8025 113.843 81.3438 113.662 81.813 113.879C82.2461 114.095 82.4265 114.637 82.21 115.106L75.3532 128.278C75.1727 128.603 74.884 128.783 74.5592 128.783Z" fill="#CEDBED"/>
<path d="M84.9529 116.88C84.8807 116.88 84.8085 116.88 84.7364 116.844L77.1578 114.968C76.6887 114.859 76.3638 114.354 76.5082 113.885C76.6165 113.416 77.1217 113.091 77.5909 113.235L85.1694 115.112C85.6386 115.22 85.9634 115.725 85.819 116.195C85.7107 116.592 85.3499 116.88 84.9529 116.88Z" fill="#1F2E43"/>
<path d="M114.905 67.1143C114.905 67.1143 117.72 73.2494 118.622 73.4298C119.524 73.6102 123.061 74.729 123.674 74.4042C124.288 74.0794 124.216 73.5742 124.216 73.5742C124.216 73.5742 124.216 71.878 124.216 70.7954C124.216 70.7954 124.901 71.1201 125.226 71.3367C125.226 71.3367 125.551 68.1248 123.999 66.6452C122.447 65.2017 120.859 64.1551 120.859 64.1551L114.905 67.1143Z" fill="white"/>
<path d="M86.0347 15.8328C86.0347 15.8328 86.1068 17.7455 87.5865 20.5965L89.03 18.9364C89.03 18.9364 87.0451 17.4207 86.0347 15.8328Z" fill="#E2F0E3"/>
<path d="M89.3192 17.4568H89.1027C88.85 17.4568 88.5974 17.3485 88.4531 17.1681L81.3437 9.26474L81.885 8.79559L88.9944 16.6989C89.0305 16.735 89.0666 16.7711 89.1027 16.7711H89.3192C89.3914 16.7711 89.4635 16.6989 89.4996 16.6268L90.1492 8.07382L90.871 8.146L90.2214 16.6989C90.1853 17.132 89.7883 17.4568 89.3192 17.4568Z" fill="#2979F2"/>
<path d="M89.6749 17.0556L88.9618 17.1669L89.3123 19.4132L90.0255 19.3019L89.6749 17.0556Z" fill="#2979F2"/>
<path d="M95.9233 11.7188L96.7534 15.2554C96.7895 15.4719 96.6451 15.6885 96.4286 15.6885L95.382 15.7967" fill="#FBA489"/>
<path d="M71.7078 61.5568L49.9465 55.0609C49.0804 54.8083 48.3947 54.1948 48.0338 53.3647C47.673 52.5347 47.709 51.6325 48.0699 50.8385L50.9931 44.8479L51.3179 44.9922L48.3947 50.9829C48.0699 51.7047 48.0338 52.4986 48.3586 53.2204C48.6834 53.9421 49.2969 54.4835 50.0187 54.7L71.7439 61.232L71.7078 61.5568Z" fill="#05214A"/>
<path d="M106.677 78.1213L112.668 91.3297L116.385 89.9944L111.08 77.183L106.677 78.1213Z" fill="#0A54C5"/>
<path d="M87.2264 12.26C87.082 11.7548 86.5768 11.5383 86.5768 11.5383L86.7211 11.2135C86.7572 11.2135 87.3707 11.5383 87.5512 12.1879L87.2264 12.26Z" fill="#1F2E43"/>
<path d="M93.8658 62.2425C93.0719 63.0364 92.5667 64.1552 92.5667 65.3822C92.5667 67.8723 94.5876 69.8571 97.0416 69.8571C97.1138 69.8571 97.1499 69.8571 97.2221 69.8571C97.619 66.8979 96.3198 63.9386 93.8658 62.2425Z" fill="#E2F0E4"/>
<path d="M67.2687 93.8197C67.2687 95.9128 68.7122 97.6812 70.661 98.1503L70.8414 96.7429C71.1662 94.4332 71.058 92.0514 70.5166 89.7778L70.4444 89.5252C68.6039 90.0665 67.2687 91.7627 67.2687 93.8197Z" fill="#E2F0E4"/>
<path d="M95.3048 11.6995C95.3093 11.4404 95.1515 11.2276 94.9523 11.224C94.753 11.2205 94.5877 11.4277 94.5831 11.6867C94.5785 11.9458 94.7364 12.1586 94.9356 12.1622C95.1349 12.1657 95.3002 11.9585 95.3048 11.6995Z" fill="#1F2E43"/>
<path d="M95.8508 10.3474C95.2012 9.6617 93.7576 10.2391 93.7576 10.2752L93.6133 9.95041C93.6855 9.91432 95.2733 9.26473 96.1034 10.1308L95.8508 10.3474Z" fill="#1F2E43"/>
<path d="M93.4694 15.8689C93.4694 15.8689 94.1912 16.6268 95.1656 16.735C95.1656 16.735 94.9851 17.4929 94.0468 17.2764C93.2168 17.0959 93.4694 15.8689 93.4694 15.8689Z" fill="#FBA489"/>
<path d="M96.7525 8.47075L87.7304 8.9399C87.7304 8.9399 85.8899 9.80602 83.4359 9.95038C81.6676 10.0586 79.6827 8.90381 78.7083 8.25422C78.3474 8.03769 78.2753 7.56854 78.4918 7.20766C79.5384 5.58368 82.8224 1.14481 88.0913 0.206517C96.0307 -1.23702 97.5825 5.25889 97.1495 8.14596C97.0773 8.3264 96.9329 8.47075 96.7525 8.47075Z" fill="#FA5F1C"/>
<path d="M95.851 6.59424C95.851 6.59424 94.8405 3.5989 90.2933 3.85152C85.7462 4.10414 80.9104 6.59424 80.9104 6.59424C80.9104 6.59424 84.4831 6.089 88.6333 5.76421C93.1443 5.43941 95.851 6.59424 95.851 6.59424Z" fill="#E24501"/>
</svg>
