<svg width="26" height="18" viewBox="0 0 26 18" fill="none" xmlns="http://www.w3.org/2000/svg">
<path d="M17.4211 9.58246L13.2664 1.81265C13.1324 1.55366 12.7303 1.55366 12.5963 1.81265L8.4416 9.58246C8.30758 10.2299 7.50345 10.3594 6.96736 9.84145L1.87453 5.05007C1.74051 4.79108 1.33844 5.05007 1.33844 5.30906L2.67866 15.7983H23.318L24.6583 5.30906C24.6583 5.05007 24.2562 4.79108 24.1222 5.05007L19.1634 9.84145C18.4933 10.3594 17.6891 10.2299 17.4211 9.58246Z" fill="url(#paint0_linear_10_984)"/>
<path d="M21.9787 18H4.01972C3.21559 18 2.6795 17.482 2.6795 16.705V15.5396H23.3189V16.705C23.3189 17.482 22.7828 18 21.9787 18Z" fill="#FFA912"/>
<path d="M1.47424 6.47472C2.28844 6.47472 2.94848 5.83697 2.94848 5.05026C2.94848 4.26355 2.28844 3.62579 1.47424 3.62579C0.66004 3.62579 0 4.26355 0 5.05026C0 5.83697 0.66004 6.47472 1.47424 6.47472Z" fill="#FFA912"/>
<path d="M24.5258 6.47417C25.34 6.47417 26 5.83642 26 5.04971C26 4.263 25.34 3.62524 24.5258 3.62524C23.7116 3.62524 23.0515 4.263 23.0515 5.04971C23.0515 5.83642 23.7116 6.47417 24.5258 6.47417Z" fill="#FFA912"/>
<path d="M12.9995 3.10792C13.8877 3.10792 14.6078 2.41219 14.6078 1.55396C14.6078 0.695732 13.8877 0 12.9995 0C12.1113 0 11.3912 0.695732 11.3912 1.55396C11.3912 2.41219 12.1113 3.10792 12.9995 3.10792Z" fill="#FFA912"/>
<path d="M12.8653 12.9605L11.9272 11.277C11.7932 11.1475 11.7932 10.8885 11.9272 10.759L12.9994 9.07556L13.9375 10.759C14.0715 10.8885 14.0715 11.1475 13.9375 11.277L12.8653 12.9605Z" fill="white"/>
<defs>
<linearGradient id="paint0_linear_10_984" x1="0.449639" y1="10.9558" x2="27.049" y2="13.1391" gradientUnits="userSpaceOnUse">
<stop stop-color="#FFCB71"/>
<stop offset="1" stop-color="#FBAF29"/>
</linearGradient>
</defs>
</svg>
