<svg width="36" height="36" viewBox="0 0 36 36" fill="none" xmlns="http://www.w3.org/2000/svg">
<circle cx="18" cy="18" r="18" fill="#FFEEEB"/>
<path d="M26.8727 16.8979C26.3525 14.2098 25.1385 13.6895 23.3175 13.6028C21.2364 13.5161 20.1092 13.1692 20.1092 13.1692C20.1092 13.1692 18.9819 12.8224 17.2477 11.6951C15.6001 10.7413 14.2994 10.5679 12.3918 12.4755C10.4841 14.3832 7.96943 20.0195 9.44354 21.0601C11.5246 22.5342 14.733 19.1524 17.9414 20.1062C21.1497 21.0601 21.8434 25.7425 24.4448 25.6558C26.2658 25.6558 27.393 19.586 26.8727 16.8979ZM16.4672 16.9846L15.6001 16.7245L15.34 17.5916C15.1666 18.0251 14.733 18.1986 14.3861 18.1119C13.9526 18.0251 13.6924 17.5916 13.8659 17.158L14.126 16.2909L13.2589 16.0308C12.8253 15.944 12.6519 15.5105 12.7386 15.0769C12.912 14.7301 13.2589 14.4699 13.6924 14.5566L14.5596 14.8168L14.8197 13.9497C14.9931 13.6028 15.4267 13.3427 15.7735 13.5161C16.2071 13.6028 16.3805 14.0364 16.2938 14.3832L16.0337 15.3371L16.9008 15.5972C17.3344 15.6839 17.5078 16.1175 17.4211 16.551C17.2477 16.8979 16.8141 17.158 16.4672 16.9846ZM21.2364 18.4587C20.8029 18.372 20.6294 17.9384 20.7162 17.5049C20.8029 17.0713 21.2364 16.8979 21.67 16.9846C22.1036 17.0713 22.277 17.5049 22.1903 17.9384C22.0168 18.372 21.5833 18.6321 21.2364 18.4587ZM22.3637 20.6265C21.9301 20.5398 21.7567 20.1062 21.8434 19.6727C21.9301 19.2391 22.3637 19.0657 22.7973 19.1524C23.2308 19.2391 23.4042 19.6727 23.3175 20.1062C23.2308 20.5398 22.7105 20.7132 22.3637 20.6265ZM23.3175 17.3314C22.884 17.2447 22.7105 16.8112 22.7973 16.3776C22.884 15.944 23.3175 15.7706 23.7511 15.8573C24.1847 15.944 24.3581 16.3776 24.2714 16.8112C24.1847 17.2447 23.7511 17.5049 23.3175 17.3314ZM24.4448 19.4993C24.0112 19.4125 23.8378 18.979 23.9245 18.5454C24.0112 18.1119 24.4448 17.9384 24.8784 18.0251C25.3119 18.1119 25.4853 18.5454 25.3986 18.979C25.2252 19.4125 24.8784 19.586 24.4448 19.4993Z" fill="#F4694C"/>
</svg>
