<svg width="17" height="25" viewBox="0 0 17 25" fill="none" xmlns="http://www.w3.org/2000/svg">
<path d="M14.9333 0.5H0.839564C0.375885 0.5 0 0.875886 0 1.33957V10.0111C0 10.4038 0.318375 10.7222 0.711111 10.7222C3.67904 10.7222 6.11172 13.4749 6.44896 16.9946C6.49319 17.4561 6.113 17.8333 5.64932 17.8333H0.839565C0.375886 17.8333 0 18.2092 0 18.6729V23.6604C0 24.1241 0.375886 24.5 0.839565 24.5H1.51111C9.86667 24.5 16.7111 17.6556 16.7111 9.3V2.27778C16.7111 1.3 15.9111 0.5 14.9333 0.5ZM8.35556 6.63333C7.37778 6.63333 6.66667 7.43333 6.66667 8.32222H4.88889C4.88889 6.36667 6.48889 4.85556 8.35556 4.85556C10.2222 4.85556 11.8222 6.45556 11.8222 8.32222H10.0444C10.0444 7.34444 9.33333 6.63333 8.35556 6.63333ZM11.9111 14.2778C10.8444 14.2778 9.95556 13.5667 9.95556 12.4111C9.95556 10.7222 11.9111 9.38889 11.9111 9.38889C11.9111 9.38889 13.8667 10.7222 13.8667 12.4111C13.8667 13.4778 12.9778 14.2778 11.9111 14.2778Z" fill="#F4694C"/>
</svg>
